<svg id="img" xmlns="http://www.w3.org/2000/svg" width="767" height="947.74"><defs><style>.cls-1{fill:#f18e3b;opacity:.1}</style></defs><path class="cls-1" d="M0 174.89s81.94 32.89 155.02 23.14c73.08-9.75 284.2-120.48 404.36-103.54C679.54 111.42 766 219.96 766 219.96v255.1s-76.56-33.92-146.73 23.39C500.9 538.23 286.86 1052.89 0 928.35V174.89"/><path class="cls-1" d="M0 148.19s71.47 41.6 164.62 24.69S439.11 10.8 558.81 1.06C678.51-8.67 767 51.64 767 51.64v354.17s-76.66-33.96-146.93 23.42C501.56 469.05 287.23 984.26 0 859.59V105.32"/></svg>