<?xml version="1.0" encoding="UTF-8"?><svg id="img" xmlns="http://www.w3.org/2000/svg" width="767" height="980.11" viewBox="0 0 767 980.11"><defs><style>.cls-1{fill:#ec893b;}.cls-1,.cls-2{opacity:.1;}.cls-2{fill:#ea873b;}</style></defs><path class="cls-2" d="M767,898.14s-82.05-32.81-155.22-23.09c-73.17,9.72-284.57,120.19-404.89,103.3C86.58,961.46,0,853.18,0,853.18v-254.5s76.66,33.84,146.93-23.34c118.52-39.68,332.84-553.14,620.07-428.89v751.7h0"/><path class="cls-1" d="M767,767.42s-82.05-32.66-155.22-22.98c-73.17,9.68-284.57,119.63-404.89,102.82C86.58,830.44,0,722.67,0,722.67v-253.31s76.66,33.68,146.93-23.23C265.44,406.64,479.77-104.41,767,19.25v748.17h0"/></svg>