<svg xmlns="http://www.w3.org/2000/svg" width="767" height="980.11"><path d="M767 898.14s-82.05-32.81-155.22-23.09c-73.17 9.72-284.57 120.19-404.89 103.3C86.58 961.46 0 853.18 0 853.18v-254.5s76.66 33.84 146.93-23.34C265.45 535.66 479.77 22.2 767 146.45v751.7" style="fill:#ea873b;opacity:.1"/><path d="M767 767.42s-82.05-32.66-155.22-22.98c-73.17 9.68-284.57 119.63-404.89 102.82C86.58 830.44 0 722.67 0 722.67V469.36s76.66 33.68 146.93-23.23C265.44 406.64 479.77-104.41 767 19.25v748.17" style="opacity:.1;fill:#ec893b"/></svg>