<svg xmlns="http://www.w3.org/2000/svg" width="147.66" height="128"><path d="M139.34 49.96C144.81 24.67 106.88 5.33 83.93.48 53.23-6.01-22.27 54.58 6.36 99.9c4.61 7.29 26.24 34.23 46.63 26.82 50.25-18.27 15.48-36.76 31.3-45.44 17.46-9.57 49.82-7.2 55.04-31.32Z" style="fill:#ed8a3b;opacity:.6"/><g style="opacity:.8"><path d="M113.2 58.08c-15.17 1.96-34.66 3.77-42.45 21.51-9.04 12.35 27.92 21.85 33.91 30.71 12.34 9.04 33.84 3.67 38.71-5.99 13.52-24.87-7.16-53.5-30.17-46.23Z" style="fill:#ddd53f"/></g></svg>