<svg id="img" xmlns="http://www.w3.org/2000/svg" width="177.27" height="99.98"><defs><style>.cls-3{opacity:.8}</style></defs><path d="M103.56 42.39c4.07-18.66-24.13-32.93-41.18-36.51C39.56 1.09-16.55 45.81 4.73 79.25c3.42 5.38 19.5 25.26 34.66 19.79 37.35-13.48 11.5-27.13 23.26-33.53 12.98-7.07 37.02-5.31 40.91-23.11Z" style="fill:#ed8a3b;opacity:.6"/><path d="M84.34 48.47c-11.29 1.45-25.79 2.78-31.59 15.85-6.73 9.1 20.78 16.09 25.23 22.63 9.19 6.66 25.19 2.71 28.81-4.41 10.06-18.32-5.33-39.41-22.45-34.06Z" style="fill:#ddd53f" class="cls-3"/><path d="M175.61 7.63c2.79-2.34 2.23-7.35-2.89-7.63-10.62.94-10.36 10.56-4.3 12.73 2.33 1.1 4.99-3.2 7.18-5.1Z" style="fill:#e2da3f" class="cls-3"/></svg>