<?xml version="1.0" encoding="UTF-8"?><svg id="img" xmlns="http://www.w3.org/2000/svg" width="146.49" height="128" viewBox="0 0 146.49 128"><defs><style>.cls-1{fill:#ec893b;opacity:.6;}.cls-2{opacity:.8;}.cls-3{opacity:.75;}.cls-4{fill:#dcd43f;}</style></defs><g class="cls-3"><path class="cls-1" d="M7.15,49.96C1.67,24.67,39.61,5.33,62.56.48c30.7-6.49,106.2,54.1,77.57,99.42-4.61,7.29-26.24,34.23-46.63,26.82-50.25-18.27-15.48-36.76-31.3-45.44-17.46-9.57-49.82-7.2-55.04-31.32Z"/><g class="cls-2"><path class="cls-4" d="M33.29,58.08c15.17,1.96,38.68,11.68,42.45,21.51,9.04,12.35-20.01,21.01-33.91,30.71-12.34,9.04-30.99,5.31-38.71-5.99-13.52-24.87,20.62-52.93,30.17-46.23Z"/></g></g></svg>