<?xml version="1.0" encoding="UTF-8"?><svg id="img" xmlns="http://www.w3.org/2000/svg" width="222.29" height="191" viewBox="0 0 222.29 191"><defs><style>.cls-1{fill:#ddd53f;}.cls-2{fill:#ed8a3b;opacity:.6;}.cls-3{opacity:.8;}</style></defs><path class="cls-2" d="M209.2,74.55C217.42,36.81,160.46,7.95,126.01.72,79.93-8.96-33.43,81.45,9.55,149.07c6.92,10.88,39.4,51.08,70.02,40.02,75.44-27.25,23.24-54.86,47-67.81,26.21-14.29,74.79-10.74,82.64-46.74Z"/><g class="cls-3"><path class="cls-1" d="M170.51,87.31c-22.79,2.95-52.05,5.66-63.75,32.28-13.57,18.54,41.94,32.78,50.92,46.09,18.54,13.57,50.83,5.51,58.14-8.99,20.31-37.32-10.76-80.28-45.31-69.38Z"/></g></svg>