<svg xmlns="http://www.w3.org/2000/svg" width="1366" height="1872"><path d="M0 494.73s146.12 58.61 276.44 41.25c130.32-17.37 506.81-214.7 721.09-184.52C1211.81 381.64 1366 575.05 1366 575.05v454.6s-136.53-60.45-261.67 41.69C893.26 1142.22 511.55 2059.39 0 1837.45V494.73" style="fill:#eb883b;opacity:.1"/><path d="M0 280.53s143.38 55.66 273.13 34.48C616 259.04 616.21 0 1024.96 0 1221.67 0 1366 101.81 1366 101.81v787.18s-98.17-20.84-261.67 41.68C763.03 1079.32 511.55 1918.37 0 1696.51V354.25" style="opacity:.1;fill:#ed8a3b"/><path style="fill:none" d="M1070.96 1034.57h1031.68v590.96H1070.96z"/></svg>