<?xml version="1.0" encoding="UTF-8"?><svg id="img" xmlns="http://www.w3.org/2000/svg" width="1366" height="1745" viewBox="0 0 1366 1745"><defs><style>.cls-1{fill:#ed8a3b;}.cls-1,.cls-2{opacity:.1;}.cls-2{fill:#eb883b;}</style></defs><path class="cls-2" d="M1366,1598.58s-146.12-58.62-276.44-41.25c-130.32,17.37-506.81,214.71-721.09,184.53C154.19,1711.69,0,1518.26,0,1518.26v-454.63s136.53,60.46,261.67-41.69C472.74,951.05,854.45,33.84,1366,255.78v1342.8h0"/><path class="cls-1" d="M1366,1300.96s-127.29-74.06-293.19-43.96c-165.9,30.1-488.86,288.54-702.04,305.87C157.6,1580.19,0,1472.83,0,1472.83v-630.48s136.53,60.45,261.67-41.69C472.74,729.78,854.45-187.39,1366,34.55v1342.72h0"/></svg>