<?xml version="1.0" encoding="UTF-8"?><svg id="img" xmlns="http://www.w3.org/2000/svg" width="1366" height="1872" viewBox="0 0 1366 1872"><defs><style>.cls-1{fill:none;}.cls-2{fill:#ed8a3b;}.cls-2,.cls-3{opacity:.1;}.cls-3{fill:#eb883b;}</style></defs><path class="cls-3" d="M0,494.73s146.12,58.61,276.44,41.25c130.32-17.37,506.81-214.7,721.09-184.52,214.28,30.18,368.47,223.59,368.47,223.59v454.6s-136.53-60.45-261.67,41.69C893.26,1142.22,511.55,2059.39,0,1837.45V494.73h0"/><path class="cls-2" d="M0,280.53s143.38,55.66,273.13,34.48C616,259.04,616.21,0,1024.96,0c196.71,0,341.04,101.81,341.04,101.81v787.18s-98.17-20.84-261.67,41.68C763.03,1079.32,511.55,1918.37,0,1696.51V354.25h0"/><rect class="cls-1" x="1070.96" y="1034.57" width="1031.68" height="590.96"/></svg>