<?xml version="1.0" encoding="UTF-8"?><svg id="img" xmlns="http://www.w3.org/2000/svg" width="217" height="161" viewBox="0 0 217 161"><defs><style>.cls-1{fill:#ddd53f;opacity:.7;}</style></defs><path class="cls-1" d="M67.15,116.24c11.13,10.58,22.44,27.96,39.04,37.24,16.71,9.2,38.7,10.29,55.89,1.47,17.16-8.62,29.33-27.19,39.85-47.35,10.4-20.08,19.05-41.67,13.18-59.64-5.9-17.78-26.35-31.75-45.15-39.28C151.27,1.06,134.31.01,120.5,0c-13.81-.01-24.38,1.13-34.54,2.85-10.24,1.6-20.08,3.78-32.39,6.86-12.42,3.16-27.3,7.21-38.31,16.97C4.38,36.37-2.7,51.65.98,64.6c3.8,12.88,18.31,23.12,31.13,30.24,12.82,7.12,23.89,10.82,35.03,21.39Z"/></svg>