<?xml version="1.0" encoding="UTF-8"?><svg id="img" xmlns="http://www.w3.org/2000/svg" width="767" height="1025.68" viewBox="0 0 767 1025.68"><defs><style>.cls-1{fill:#f8953b;}.cls-1,.cls-2{opacity:.1;}.cls-2{fill:#f9963b;}</style></defs><path class="cls-2" d="M0,157.45s80.51,31.24,153.36,19.35C345.88,145.39,346,0,575.51,0c110.45,0,191.49,57.14,191.49,57.14v441.81s-55.12-11.7-146.93,23.39C428.44,605.77,287.23,1076.69,0,952.17V198.82h0"/><path class="cls-1" d="M0,257.36s82.05,32.7,155.22,23.01c73.17-9.69,284.57-119.77,404.89-102.94,120.31,16.84,206.89,124.73,206.89,124.73v253.6s-76.66-33.72-146.93,23.26C501.56,618.57,287.23,1130.22,0,1006.41V257.36h0"/></svg>