<svg xmlns="http://www.w3.org/2000/svg" width="767" height="1025.68"><path d="M0 157.45s80.51 31.24 153.36 19.35C345.88 145.39 346 0 575.51 0 685.96 0 767 57.14 767 57.14v441.81s-55.12-11.7-146.93 23.39C428.44 605.77 287.23 1076.69 0 952.17V198.82" style="fill:#f9963b;opacity:.1"/><path d="M0 257.36s82.05 32.7 155.22 23.01c73.17-9.69 284.57-119.77 404.89-102.94C680.42 194.27 767 302.16 767 302.16v253.6s-76.66-33.72-146.93 23.26C501.56 618.57 287.23 1130.22 0 1006.41V257.36" style="opacity:.1;fill:#f8953b"/></svg>