<svg xmlns="http://www.w3.org/2000/svg" width="1366" height="1802.37"><path d="M0 424.8s146.12 58.62 276.44 41.25c130.32-17.37 506.81-214.74 721.09-184.56C1211.81 311.67 1366 505.13 1366 505.13v454.7s-136.53-60.46-261.67 41.7C893.26 1072.43 511.55 1989.79 0 1767.81V424.8" style="opacity:.1;fill:#f8953b"/><path d="M0 280.59s143.38 55.68 273.13 34.49C616 259.1 616.21 0 1024.96 0 1221.67 0 1366 101.83 1366 101.83v787.35s-98.17-20.85-261.67 41.69C763.03 1079.55 511.55 1918.79 0 1696.88V354.32" style="fill:#f9963b;opacity:.1"/></svg>