<?xml version="1.0" encoding="UTF-8"?><svg id="img" xmlns="http://www.w3.org/2000/svg" width="246.13" height="170" viewBox="0 0 246.13 170"><defs><style>.cls-1{opacity:.8;}.cls-1,.cls-2{fill:#f8953b;stroke-width:0px;}.cls-2{opacity:.5;}</style></defs><path class="cls-2" d="M195.08,106.76c-8.11,13.13-14.66,32.89-28.39,46.17-13.87,13.23-34.92,19.97-53.84,15.87-18.84-3.92-35.37-18.76-50.7-35.58-15.2-16.76-29.07-35.45-27.95-54.39,1.2-18.75,17.48-37.58,33.8-49.73,16.19-12.2,32.37-17.6,45.76-21.18,13.39-3.58,23.93-5.2,34.23-6.17,10.35-1.1,20.44-1.53,33.16-1.73,12.85-.15,28.32-.07,41.48,6.54,13.02,6.57,23.78,19.54,23.51,33.05-.41,13.46-11.89,27.13-22.51,37.35-10.62,10.22-20.43,16.66-28.54,29.79Z"/><path class="cls-1" d="M87.96,94.12c-4.43,7.26-8.01,18.19-15.52,25.53-7.58,7.31-19.08,11.04-29.42,8.78-10.3-2.17-19.33-10.37-27.71-19.67C7,99.49-.58,89.15.03,78.68c.66-10.37,9.55-20.78,18.47-27.5,8.85-6.75,17.69-9.73,25.01-11.71,7.32-1.98,13.08-2.88,18.71-3.41,5.65-.61,11.17-.84,18.12-.96,7.02-.08,15.48-.04,22.67,3.62,7.12,3.63,13,10.81,12.85,18.27-.22,7.44-6.5,15-12.3,20.65s-11.16,9.21-15.6,16.47Z"/></svg>