<?xml version="1.0" encoding="UTF-8"?><svg id="img" xmlns="http://www.w3.org/2000/svg" width="83.97" height="113.64" viewBox="0 0 83.97 113.64"><defs><style>.cls-1{fill:#f8953b;opacity:.7;}</style></defs><path class="cls-1" d="M21.52,36.8c-5.22,6.12-13.99,12.53-18.38,21.46-4.34,9-4.29,20.53.8,29.27,4.99,8.73,15.04,14.57,25.88,19.51,10.79,4.88,22.33,8.79,31.57,5.21,9.13-3.59,15.87-14.67,19.27-24.72,3.45-9.99,3.53-18.89,3.14-26.11-.38-7.22-1.28-12.72-2.46-17.98-1.13-5.31-2.54-10.4-4.5-16.75-2-6.41-4.54-14.08-9.96-19.56C61.53,1.72,53.34-1.55,46.66.74c-6.63,2.35-11.57,10.23-14.94,17.13-3.36,6.91-4.98,12.8-10.2,18.92Z"/></svg>