<svg xmlns="http://www.w3.org/2000/svg" width="767" height="1002.44"><path d="M767 773.75s-82.05-32.93-155.22-23.17c-73.17 9.76-284.57 120.62-404.89 103.66C86.58 837.29 0 728.62 0 728.62V473.23s76.66 33.96 146.93-23.42C265.44 409.99 479.77-105.27 767 19.41v754.34" style="fill:#f9963b;opacity:.1"/><path d="M767 920.76s-82.05-32.7-155.22-23.01c-73.17 9.69-284.57 119.77-404.89 102.94C86.58 983.85 0 875.95 0 875.95v-253.6s76.66 33.72 146.93-23.26C265.45 559.55 479.77 47.9 767 171.71v749.05" style="opacity:.1;fill:#f8953b"/></svg>