<?xml version="1.0" encoding="UTF-8"?><svg id="img" xmlns="http://www.w3.org/2000/svg" width="1366" height="1802.37" viewBox="0 0 1366 1802.37"><defs><style>.cls-1{fill:#f8953b;}.cls-1,.cls-2{opacity:.1;stroke-width:0px;}.cls-2{fill:#f9963b;}</style></defs><path class="cls-1" d="M0,424.8s146.12,58.62,276.44,41.25c130.32-17.37,506.81-214.74,721.09-184.56,214.28,30.18,368.47,223.64,368.47,223.64v454.7s-136.53-60.46-261.67,41.7C893.26,1072.43,511.55,1989.79,0,1767.81V424.8h0"/><path class="cls-2" d="M0,280.59s143.38,55.68,273.13,34.49C616,259.1,616.21,0,1024.96,0c196.71,0,341.04,101.83,341.04,101.83v787.35s-98.17-20.85-261.67,41.69C763.03,1079.55,511.55,1918.79,0,1696.88V354.32h0"/></svg>