<?xml version="1.0" encoding="UTF-8"?><svg id="img" xmlns="http://www.w3.org/2000/svg" width="767" height="1002.44" viewBox="0 0 767 1002.44"><defs><style>.cls-1{fill:#f8953b;}.cls-1,.cls-2{opacity:.1;}.cls-2{fill:#f9963b;}</style></defs><path class="cls-2" d="M767,773.75s-82.05-32.93-155.22-23.17c-73.17,9.76-284.57,120.62-404.89,103.66C86.58,837.29,0,728.62,0,728.62v-255.39s76.66,33.96,146.93-23.42C265.44,409.99,479.77-105.27,767,19.41v754.34h0"/><path class="cls-1" d="M767,920.76s-82.05-32.7-155.22-23.01c-73.17,9.69-284.57,119.77-404.89,102.94C86.58,983.85,0,875.95,0,875.95v-253.6s76.66,33.72,146.93-23.26c118.52-39.54,332.84-551.19,620.07-427.38v749.05h0"/></svg>