<?xml version="1.0" encoding="UTF-8"?><svg id="img" xmlns="http://www.w3.org/2000/svg" width="212" height="170" viewBox="0 0 212 170"><defs><style>.cls-1{fill:#f8953b;opacity:.5;stroke-width:0px;}</style></defs><path class="cls-1" d="M51.05,106.76c8.11,13.13,14.66,32.89,28.39,46.17,13.87,13.23,34.92,19.97,53.84,15.87,18.84-3.92,35.37-18.76,50.7-35.58,15.2-16.76,29.07-35.45,27.95-54.39-1.2-18.75-17.48-37.58-33.8-49.73-16.19-12.2-32.37-17.6-45.76-21.18-13.39-3.58-23.93-5.2-34.23-6.17C87.8.67,77.71.24,64.99.03c-12.85-.15-28.32-.07-41.48,6.54C10.49,13.15-.27,26.12,0,39.63c.41,13.46,11.89,27.13,22.51,37.35,10.62,10.22,20.43,16.66,28.54,29.79Z"/></svg>