<?xml version="1.0" encoding="UTF-8"?><svg id="img" xmlns="http://www.w3.org/2000/svg" width="184.49" height="230.67" viewBox="0 0 184.49 230.67"><defs><style>.cls-1{fill:#f8953b;opacity:.7;}.cls-1,.cls-2{stroke-width:0px;}.cls-2{fill:#e8e03f;}.cls-3{opacity:.8;}</style></defs><path class="cls-1" d="M65.5,70.26c-9.94,11.69-26.66,23.92-35.02,40.99-8.27,17.18-8.18,39.2,1.53,55.89,9.51,16.67,28.67,27.83,49.32,37.25,20.57,9.31,42.54,16.78,60.14,9.96,17.4-6.85,30.23-28.02,36.73-47.2,6.58-19.07,6.72-36.06,5.99-49.85-.73-13.79-2.44-24.28-4.69-34.34-2.15-10.15-4.84-19.85-8.57-31.97-3.81-12.23-8.65-26.88-18.97-37.34C141.73,3.29,126.12-2.96,113.41,1.41c-12.63,4.48-22.05,19.53-28.47,32.72-6.41,13.19-9.5,24.44-19.44,36.13Z"/><g class="cls-3"><path class="cls-2" d="M1.25,225.14c-2.1-6.3-.9-15.12-.3-22.07,2.64-6.85,12.28.17,16.91,4.37,5.41,2.18,9.2,10.95,5.02,16.35-6.18,12.01-19.77,5.25-21.63,1.34Z"/></g></svg>