<?xml version="1.0" encoding="UTF-8"?><svg id="img" xmlns="http://www.w3.org/2000/svg" width="310" height="214" viewBox="0 0 310 214"><defs><style>.cls-1{opacity:.8;}.cls-1,.cls-2{fill:#f9963b;stroke-width:0px;}.cls-2{opacity:.5;}</style></defs><path class="cls-2" d="M64.1,134.39c10.18,16.53,18.41,41.41,35.65,58.12,17.41,16.65,43.84,25.14,67.6,19.98,23.65-4.93,44.4-23.62,63.65-44.78,19.08-21.1,36.5-44.62,35.1-68.46-1.51-23.61-21.95-47.31-42.44-62.6-20.33-15.36-40.64-22.16-57.45-26.66-16.81-4.5-30.05-6.55-42.98-7.76C110.24.84,97.56.3,81.59.04c-16.13-.19-35.56-.09-52.07,8.24C13.17,16.55-.34,32.88,0,49.89c.51,16.94,14.92,34.16,28.26,47.02,13.34,12.86,25.65,20.97,35.83,37.49Z"/><path class="cls-1" d="M198.33,118.45c5.63,9.11,10.17,22.83,19.7,32.05,9.62,9.18,24.23,13.86,37.36,11.02,13.07-2.72,24.54-13.02,35.18-24.69,10.55-11.64,20.17-24.61,19.4-37.75-.83-13.02-12.13-26.08-23.45-34.52-11.23-8.47-22.46-12.22-31.75-14.7-9.29-2.48-16.61-3.61-23.75-4.28-7.18-.76-14.18-1.06-23.01-1.2-8.92-.11-19.65-.05-28.78,4.54-9.04,4.56-16.5,13.57-16.31,22.94.28,9.34,8.25,18.83,15.62,25.92,7.37,7.09,14.17,11.56,19.8,20.67Z"/></svg>