<?xml version="1.0" encoding="UTF-8"?><svg id="Illustrator" xmlns="http://www.w3.org/2000/svg" width="767" height="1322.96" viewBox="0 0 767 1322.96"><defs><style>.cls-1{fill:#f9963b;opacity:.6;}</style></defs><path class="cls-1" d="M656.98,4.32c-73.04,12.32-63.3,32.34-140.73,51.85-77.43,19.51-98.85-7.7-170.92,3.59s-85.7,35.42-136.35,49.66-81.32,5.78-113.95,1.67c-32.63-4.11-57.95-.51-95.04,9.24v1192.67s36.98,17.97,110.02,5.65c73.04-12.32,63.3-32.34,140.73-51.85s98.85,7.7,170.92-3.59c72.07-11.29,85.7-35.42,136.35-49.66,50.64-14.24,81.32-5.78,113.95-1.67,32.63,4.11,57.95.51,95.04-9.24V9.96s-36.98-17.97-110.02-5.65Z"/></svg>