<?xml version="1.0" encoding="UTF-8"?>
<svg id="img" xmlns="http://www.w3.org/2000/svg" viewBox="0 0 1366 1470.83">
  <defs>
    <style>
      .cls-1 {
        fill: #f9963b;
        opacity: .6;
        stroke-width: 0px;
      }
    </style>
  </defs>
  <path class="cls-1" d="M0,215.08c.02-2.86,103.55-37.96,246.93-6.43,138.49,6.43,193.38-39.27,248.54-66.9,55.15-27.63,158.3-50.6,270.5-32.02s234.15-28.06,278.44-58.17c59.84-42.68,238.81-72.57,321.58-33.11v1237.87s-100.91,31.72-194.73,12.89c-93.82-18.83-198.72-.19-248.65,34.64-49.93,34.82-195.05,81.36-298.38,60.85-103.33-20.51-235.36,8.18-315.92,62.35-106.81,56.93-263.04,50.06-308.31,25.9C0,1398.44,0,215.08,0,215.08Z"/>
</svg>