<?xml version="1.0" encoding="UTF-8"?>
<svg id="img" xmlns="http://www.w3.org/2000/svg" viewBox="0 0 211 169">
  <defs>
    <style>
      .cls-1 {
        fill: #e9e13f;
        opacity: .7;
        stroke-width: 0px;
      }
    </style>
  </defs>
  <path class="cls-1" d="M50.71,106.22c8.05,13.04,14.54,32.7,28.19,45.88,13.78,13.13,34.73,19.8,53.58,15.69,18.76-3.93,35.25-18.73,50.54-35.48,15.16-16.7,29.01-35.32,27.93-54.15-1.16-18.65-17.33-37.35-33.56-49.41-16.1-12.11-32.2-17.45-45.52-20.99-13.32-3.54-23.82-5.13-34.07-6.07C87.49.62,77.44.2,64.78.03,51.98-.1,36.58,0,23.47,6.61,10.49,13.17-.25,26.1,0,39.53c.38,13.39,11.78,26.97,22.34,37.11s20.31,16.53,28.36,29.58Z"/>
</svg>