<svg xmlns="http://www.w3.org/2000/svg" width="678" height="1870"><path d="M.26 14.45c0-3.75 2.58-7 6.22-7.84 22.58-5.2 102.95-19.28 179.2 21.5 89.5 42.32 138.06 31.71 165.69 27.37 27.6-4.34 99.03-6.56 176.64 36.07.22.12.44.23.67.33 64.61 28.08 117.3 17.06 139.63 13.34 4.87-.81 9.29 2.96 9.29 7.92.01 119.21.4 1756.83.4 1756.83-.02.43-47.47-1.73-93.19-28.66-52.17-30.73-108.63-40.21-160.22-31.53-51.91 8.73-120.59.31-175.97-33.94-37.28-23.05-92.97-29.65-138.84-20.2C62.93 1765.28 0 1748.74 0 1748.8c-.03.35.26-1734.35.26-1734.35Z" style="fill:#f3e9cf"/><path d="M.26 14.45c0-3.75 2.58-7 6.22-7.84 22.58-5.2 102.95-19.28 179.2 21.5 89.5 42.32 138.06 31.71 165.69 27.37 27.6-4.34 99.03-6.56 176.64 36.07.22.12.44.23.67.33 64.61 28.08 117.3 17.06 139.63 13.34 4.87-.81 9.29 2.96 9.29 7.92.01 119.21.4 1756.83.4 1756.83-.02.43-47.47-1.73-93.19-28.66-52.17-30.73-108.63-40.21-160.22-31.53-51.91 8.73-120.59.31-175.97-33.94-37.28-23.05-92.97-29.65-138.84-20.2C62.93 1765.28 0 1748.74 0 1748.8c-.03.35.26-1734.35.26-1734.35Z" style="fill:#f9963b;opacity:.6"/></svg>