<?xml version="1.0" encoding="UTF-8"?>
<svg id="img" xmlns="http://www.w3.org/2000/svg" viewBox="0 0 1366 1848.83">
  <defs>
    <style>
      .cls-1 {
        fill: #f9963b;
        opacity: .1;
        stroke-width: 0px;
      }
    </style>
  </defs>
  <path class="cls-1" d="M0,280.59s143.38,55.68,273.13,34.49C616,259.1,616.21,0,1024.96,0c196.71,0,341.04,101.83,341.04,101.83v787.35s-98.17-20.85-261.67,41.69C763.03,1079.55,511.55,1918.79,0,1696.88V354.32h0"/>
  <path class="cls-1" d="M0,471.27s146.12,58.62,276.44,41.25c130.32-17.37,506.81-214.74,721.09-184.56,214.28,30.18,368.47,223.64,368.47,223.64v454.7s-136.53-60.46-261.67,41.7C893.26,1118.9,511.55,2036.26,0,1814.27V471.27h0"/>
</svg>