<svg xmlns="http://www.w3.org/2000/svg" viewBox="0 0 1234 1194"><path d="M.17 38.41a9.97 9.97 0 0 1 7.74-9.72c27.07-8.66 124.6-41.33 201.55-23.4 90.98 21.2 201.18 89.27 259.83 98.7 58.65 9.44 68.64 14.7 161.59 7.94 92.95-6.75 180.09-11.55 285.67 30.03 92.39 36.38 266.13 50.16 308.14 53.03 5.25.36 9.31 4.71 9.31 9.97v978.79c0 6.39-4.49 8.94-11.49 9.88s-55.9 2-110.24-26.2c-54.35-28.2-168.42-59.66-231.57-55.16l-.69.02c-53.28-.37-247.69 31.02-397.28-36.1l-.66-.27c-154.69-55.94-196.62-39.12-285.91-32.19-112.14 9.84-127.23-1.26-187.45-9.94a9.985 9.985 0 0 1-8.56-9.86c-.32-107.75 0-898.14.03-985.56Z" style="fill:#f9963b;opacity:.6;stroke-width:0"/></svg>