<?xml version="1.0" encoding="UTF-8"?>
<svg id="img" xmlns="http://www.w3.org/2000/svg" viewBox="0 0 1234 1194">
  <defs>
    <style>
      .cls-1 {
        fill: #f9963b;
        opacity: .6;
        stroke-width: 0px;
      }
    </style>
  </defs>
  <path class="cls-1" d="M.17,38.41c0-4.65,3.21-8.68,7.74-9.72C34.98,20.03,132.51-12.64,209.46,5.29c90.98,21.2,201.18,89.27,259.83,98.7,58.65,9.44,68.64,14.7,161.59,7.94,92.95-6.75,180.09-11.55,285.67,30.03,92.39,36.38,266.13,50.16,308.14,53.03,5.25.36,9.31,4.71,9.31,9.97,0,94.19,0,869.37,0,978.79,0,6.39-4.49,8.94-11.49,9.88s-55.9,2-110.24-26.2c-54.35-28.2-168.42-59.66-231.57-55.16l-.69.02c-53.28-.37-247.69,31.02-397.28-36.1l-.66-.27c-154.69-55.94-196.62-39.12-285.91-32.19-112.14,9.84-127.23-1.26-187.45-9.94-4.91-.71-8.55-4.91-8.56-9.86-.32-107.75,0-898.14.03-985.56Z"/>
</svg>