<svg id="img" xmlns="http://www.w3.org/2000/svg" width="767" height="940.24"><defs><style>.cls-1{fill:#f9963b;opacity:.1}</style></defs><path class="cls-1" d="M0 152.03s81.94 33.54 155.02 23.6c73.08-9.94 284.2-122.87 404.36-105.6C679.54 87.3 766 197.99 766 197.99v260.17s-76.56-34.6-146.73 23.86C500.9 522.59 286.86 1047.48 0 920.47V152.03"/><path class="cls-1" d="M0 82.26s82.05 32.93 155.22 23.17C228.39 95.67 439.79-15.2 560.11 1.76 680.42 18.72 767 127.39 767 127.39v255.42s-76.66-33.96-146.93 23.42C501.56 446.05 287.23 961.36 0 836.66V82.26"/></svg>