<svg id="img" xmlns="http://www.w3.org/2000/svg" width="767" height="1008.36"><defs><style>.cls-1{fill:#f9963b;opacity:.1}</style></defs><path class="cls-1" d="M0 236.42s81.94 32.85 155.02 23.12c73.08-9.73 284.2-120.34 404.36-103.42C679.54 173.03 766 281.44 766 281.44v254.8s-76.56-33.88-146.73 23.37C500.9 599.33 286.86 1113.39 0 989V236.42"/><path class="cls-1" d="M0 157.61s80.51 31.27 153.36 19.37C345.88 145.54 346 0 575.51 0 685.96 0 767 57.2 767 57.2v442.26s-55.12-11.71-146.93 23.42C428.44 606.39 287.23 1077.8 0 953.15V199.03"/></svg>